<svg 
    xmlns="http://www.w3.org/2000/svg" width="35" height="35" fill="none">
    <path stroke="#000" stroke-linecap="round" stroke-linejoin="round" stroke-width="2" 
        d="m32.083 25.52-1.008-14.627c-.159-2.296-.238-3.444-.736-4.315a4.374 4.374 0 0 0-1.892-1.766c-.903-.437-2.054-.437-4.356-.437H10.91c-2.302 0-3.453 0-4.356.437-.794.384-1.454 
        1-1.892 1.766-.498.87-.577 2.019-.736 4.315L2.917 25.521m29.166 0a5.104 5.104 0 0 1-5.104 5.104H8.021a5.104 5.104 0 0 1-5.104-5.104m29.166 0a5.104 5.104 0 0 0-5.104-5.104H8.021a5.104 
        5.104 0 0 0-5.104 5.104m5.833 0h.015m8.735 0h8.75"/>
        </svg>